<?xml version="1.0" encoding="utf-8"?>
<!-- Generator: Adobe Illustrator 25.0.1, SVG Export Plug-In . SVG Version: 6.00 Build 0)  -->
<svg version="1.1" id="Calque_1" xmlns="http://www.w3.org/2000/svg" xmlns:xlink="http://www.w3.org/1999/xlink" x="0px" y="0px"
	 viewBox="0 0 283.46 566.93" style="enable-background:new 0 0 283.46 566.93;" xml:space="preserve">
<style type="text/css">
	.st0{fill:#FFFFFF;}
</style>
<g>
	<g id="Groupe_14" transform="translate(249.692 1457.817) rotate(-124)">
		<g id="Groupe_9" transform="translate(288.788 176.765)">
			<g id="Groupe_1" transform="translate(227.552 29.079)">
				<path id="Tracé_4" class="st0" d="M551.82,356.12c-0.96,0-1.73,0.77-1.73,1.73c0,0.87,0.65,1.61,1.51,1.72
					c6.01,0.77,11.58,2.1,16.11,3.86c0.89,0.35,1.89-0.1,2.24-0.99c0.35-0.89-0.1-1.89-0.99-2.24c-4.79-1.85-10.64-3.26-16.92-4.07
					C551.97,356.12,551.89,356.12,551.82,356.12z"/>
			</g>
			<g id="Groupe_2" transform="translate(0 28.306)">
				<path id="Tracé_5" class="st0" d="M754.95,356.7c-0.06,0-0.13,0-0.19,0.01c-19.42,2.07-32.47,8.99-32.47,17.21
					c0,9.99,19.37,17.81,44.09,17.81c11.38,0,22.14-1.68,30.31-4.74c0.85-0.3,1.3-1.23,1.01-2.08c-0.01-0.02-0.02-0.04-0.02-0.07
					c-0.38-0.86-1.36-1.28-2.24-0.94c-7.77,2.91-18.09,4.52-29.05,4.52c-24.3,0-40.63-7.5-40.63-14.5c0-6.25,12.36-12.1,29.39-13.92
					c0.92-0.08,1.61-0.89,1.53-1.81c0-0.01,0-0.01,0-0.02C756.55,357.32,755.82,356.69,754.95,356.7z"/>
			</g>
			<g id="Groupe_3" transform="translate(128.199)">
				<path id="Tracé_6" class="st0" d="M641.67,378.12h-11.97c-1.12,0-2.12,0.73-2.45,1.8l-1.9,6.08c-0.28,0.91,0.22,1.88,1.14,2.17
					c0.91,0.28,1.88-0.22,2.17-1.14l1.7-5.46h10.95l2.56,2.51c0.68,0.67,1.78,0.66,2.45-0.03c0.67-0.68,0.66-1.78-0.03-2.45l0,0
					l-2.82-2.76C642.99,378.39,642.35,378.12,641.67,378.12z"/>
			</g>
			<g id="Groupe_4" transform="translate(81.189 116.483)">
				<path id="Tracé_7" class="st0" d="M662.58,289.98c-0.96,0-1.73,0.78-1.73,1.73c0,0.88,0.66,1.61,1.53,1.72
					c2.13,0.25,4.39,0.47,6.73,0.65c0.95,0.06,1.78-0.66,1.84-1.61c0.06-0.94-0.64-1.75-1.58-1.84c-2.28-0.17-4.5-0.39-6.58-0.63
					C662.72,289.98,662.65,289.98,662.58,289.98z"/>
			</g>
			<g id="Groupe_5" transform="translate(2.565 73.245)">
				<path id="Tracé_8" class="st0" d="M729.67,322.7c-0.15,0-0.29,0.02-0.43,0.06c-6.06,1.57-8.88,3.48-8.88,6.03
					c0,2.99,3.96,5.16,12.47,6.84c0.94,0.18,1.85-0.43,2.03-1.36c0.18-0.94-0.43-1.85-1.36-2.03l0,0c-6.95-1.37-9.24-2.86-9.64-3.44
					c0.23-0.31,1.36-1.42,6.25-2.69c0.93-0.24,1.48-1.18,1.25-2.1C731.15,323.23,730.46,322.69,729.67,322.7L729.67,322.7z"/>
			</g>
			<g id="Groupe_6" transform="translate(58.039 65.016)">
				<path id="Tracé_9" class="st0" d="M687.77,328.92c-0.06,0-0.12,0-0.18,0.01c-2.81,0.29-5.42,0.64-7.77,1.04
					c-0.94,0.15-1.58,1.04-1.43,1.98c0.15,0.94,1.04,1.58,1.98,1.43c0.01,0,0.01,0,0.02,0c2.28-0.38,4.82-0.72,7.56-1.01
					c0.95-0.1,1.64-0.95,1.54-1.9C689.4,329.59,688.66,328.93,687.77,328.92L687.77,328.92z"/>
			</g>
			<g id="Groupe_7" transform="translate(117.31 62.326)">
				<path id="Tracé_10" class="st0" d="M637.36,330.96c-0.03,0-0.06,0-0.09,0c-0.72,0.04-1.43,0.08-2.13,0.13
					c-0.95,0.06-1.68,0.89-1.61,1.84s0.89,1.68,1.84,1.61c0.69-0.04,1.38-0.09,2.09-0.12c0.95-0.05,1.69-0.86,1.64-1.81
					C639.05,331.68,638.28,330.96,637.36,330.96L637.36,330.96z"/>
			</g>
			<g id="Groupe_8" transform="translate(308.956 12.275)">
				<path id="Tracé_11" class="st0" d="M501.64,368.84c-0.92-0.01-1.78,0.48-2.25,1.27l-10.55,17.74c-0.46,0.78-0.46,1.75,0,2.52
					c0.48,0.79,1.34,1.26,2.27,1.26h9.6l0,15.71l-3.59-3.21c-0.73-0.65-1.84-0.61-2.52,0.09c-0.65,0.66-0.63,1.72,0.03,2.37
					c0.02,0.02,0.04,0.04,0.07,0.06l5.11,4.58c0.75,0.72,1.85,0.94,2.82,0.56c0.99-0.36,1.65-1.3,1.65-2.35v-17.82h13.82
					c0.95,0.03,1.75-0.71,1.78-1.66s-0.71-1.75-1.66-1.78c-0.04,0-0.08,0-0.12,0l-13.82,0v-16.83c0-1.17-0.81-2.17-1.94-2.44
					C502.11,368.87,501.88,368.84,501.64,368.84z M492.75,388.19l7.96-13.39v13.39H492.75z"/>
			</g>
		</g>
	</g>
	<g id="Groupe_15" transform="translate(-1006.61 45.477)">
		<g id="Ligne_2">
			<path class="st0" d="M1187.46,77.11c-0.62,0-1.24-0.24-1.72-0.71L1164.33,55c-0.95-0.95-0.95-2.49,0-3.44
				c0.95-0.95,2.49-0.95,3.44,0l21.41,21.41c0.95,0.95,0.95,2.49,0,3.44C1188.7,76.88,1188.08,77.11,1187.46,77.11z"/>
		</g>
		<g id="Ligne_3">
			<path class="st0" d="M1166.05,77.11c-0.62,0-1.24-0.24-1.72-0.71c-0.95-0.95-0.95-2.49,0-3.44l21.41-21.41
				c0.95-0.95,2.49-0.95,3.44,0c0.95,0.95,0.95,2.49,0,3.44l-21.41,21.41C1167.3,76.88,1166.68,77.11,1166.05,77.11z"/>
		</g>
	</g>
	<g id="Groupe_16" transform="translate(-1027.544 1345.477)">
		<g id="Ligne_2-2">
			<path class="st0" d="M1203.3-906.66c-0.62,0-1.24-0.24-1.72-0.71l-21.41-21.41c-0.95-0.95-0.95-2.49,0-3.44
				c0.95-0.95,2.49-0.95,3.44,0l21.41,21.41c0.95,0.95,0.95,2.49,0,3.44C1204.55-906.9,1203.92-906.66,1203.3-906.66z"/>
		</g>
		<g id="Ligne_3-2">
			<path class="st0" d="M1181.89-906.66c-0.62,0-1.25-0.24-1.72-0.71c-0.95-0.95-0.95-2.49,0-3.44l21.41-21.41
				c0.95-0.95,2.49-0.95,3.44,0c0.95,0.95,0.95,2.49,0,3.44l-21.41,21.41C1183.14-906.9,1182.52-906.66,1181.89-906.66z"/>
		</g>
	</g>
	<g>
		<path class="st0" d="M112.22,497.2c-1.09-0.78-2.61-0.52-3.39,0.57c-2.09,2.93-3.96,5.56-5.64,7.91
			c-0.78,1.09-0.53,2.61,0.57,3.39c0.43,0.31,0.92,0.45,1.41,0.45c0.76,0,1.51-0.35,1.98-1.02c1.68-2.36,3.55-4.98,5.64-7.92
			C113.57,499.5,113.31,497.98,112.22,497.2z"/>
		<path class="st0" d="M105.94,189.14c0.19,0.04,0.37,0.06,0.55,0.06c1.11,0,2.11-0.76,2.37-1.88c0.69-2.98,1.67-5.94,2.91-8.78
			c0.54-1.23-0.03-2.67-1.26-3.2c-1.23-0.54-2.67,0.03-3.2,1.26c-1.36,3.12-2.43,6.36-3.19,9.63
			C103.82,187.53,104.63,188.84,105.94,189.14z"/>
		<path class="st0" d="M175.84,310.97c-1.05,0.84-1.23,2.37-0.39,3.42c2.11,2.65,3.92,5.17,5.53,7.69c0.46,0.72,1.25,1.12,2.05,1.12
			c0.45,0,0.9-0.12,1.31-0.38c1.13-0.72,1.46-2.23,0.74-3.36c-1.71-2.66-3.61-5.31-5.82-8.09
			C178.42,310.31,176.89,310.14,175.84,310.97z"/>
		<path class="st0" d="M96.69,518.94c-1.09-0.78-2.61-0.54-3.4,0.55c-1.69,2.35-2.69,3.73-3.3,4.55c-0.18,0.15-0.35,0.32-0.49,0.52
			c-0.72,1.05-0.99,1.44-0.99,2.23l0,2.43h2.43c1.26,0,1.72-0.63,2.84-2.15c0.72-0.98,1.88-2.59,3.45-4.76
			C98.03,521.24,97.79,519.72,96.69,518.94z"/>
		<path class="st0" d="M174.92,81.25c0.33,1.03,1.29,1.68,2.31,1.68c0.25,0,0.5-0.04,0.75-0.12c1.28-0.42,1.98-1.79,1.56-3.07
			c-1.02-3.13-2.51-6.26-4.45-9.3c-0.72-1.13-2.22-1.47-3.36-0.75c-1.13,0.72-1.47,2.22-0.75,3.36
			C172.71,75.76,174.03,78.51,174.92,81.25z"/>
		<path class="st0" d="M152.76,54.99c2.69,1.9,5.2,3.86,7.46,5.85c0.46,0.4,1.03,0.6,1.6,0.6c0.68,0,1.35-0.28,1.83-0.83
			c0.89-1.01,0.79-2.55-0.22-3.43c-2.39-2.1-5.04-4.17-7.87-6.17c-1.1-0.77-2.62-0.51-3.39,0.59
			C151.39,52.7,151.66,54.22,152.76,54.99z"/>
		<path class="st0" d="M135.63,145.96c0.48,0.57,1.17,0.86,1.86,0.86c0.55,0,1.11-0.19,1.57-0.57c2.14-1.81,4.34-3.62,6.47-5.38
			l1-0.83c1.04-0.86,1.18-2.39,0.33-3.42c-0.86-1.04-2.39-1.18-3.42-0.33l-1,0.82c-2.14,1.76-4.35,3.59-6.51,5.42
			C134.89,143.4,134.77,144.93,135.63,145.96z"/>
		<path class="st0" d="M139.54,46.66c0.88,0,1.74-0.48,2.17-1.32c0.61-1.2,0.14-2.66-1.05-3.27c-5.3-2.72-8.95-4.15-9.1-4.2
			c-1.25-0.49-2.66,0.13-3.15,1.38c-0.49,1.25,0.13,2.66,1.38,3.15c0.04,0.01,3.58,1.41,8.65,4
			C138.79,46.57,139.17,46.66,139.54,46.66z"/>
		<path class="st0" d="M185.73,385.79c-1.23-0.54-2.67,0.03-3.2,1.26c-1.22,2.8-2.59,5.72-4.09,8.66c-0.61,1.2-0.13,2.66,1.06,3.27
			c0.35,0.18,0.73,0.27,1.1,0.27c0.89,0,1.74-0.49,2.17-1.33c1.54-3.03,2.96-6.03,4.22-8.93
			C187.53,387.76,186.96,386.32,185.73,385.79z"/>
		<path class="st0" d="M190.09,345.83c0.17,1.22,1.21,2.11,2.41,2.11c0.11,0,0.22-0.01,0.33-0.02c1.33-0.18,2.26-1.41,2.08-2.74
			c-0.45-3.33-1.2-6.65-2.23-9.87c-0.41-1.28-1.78-1.98-3.06-1.58c-1.28,0.41-1.98,1.78-1.58,3.06
			C188.99,339.74,189.68,342.78,190.09,345.83z"/>
		<path class="st0" d="M192.7,360.05c-1.33-0.19-2.56,0.74-2.75,2.07c-0.42,2.98-1.05,6.09-1.88,9.24c-0.34,1.3,0.43,2.63,1.73,2.97
			c0.21,0.06,0.42,0.08,0.62,0.08c1.08,0,2.06-0.72,2.35-1.81c0.88-3.34,1.55-6.64,2-9.81C194.96,361.47,194.03,360.24,192.7,360.05
			z"/>
		<path class="st0" d="M127.71,475.42c-1.09-0.78-2.61-0.52-3.39,0.57c-1.98,2.79-3.86,5.43-5.63,7.92
			c-0.78,1.1-0.52,2.61,0.57,3.39c0.43,0.3,0.92,0.45,1.41,0.45c0.76,0,1.51-0.36,1.98-1.02c1.77-2.49,3.65-5.13,5.63-7.92
			C129.06,477.71,128.8,476.2,127.71,475.42z"/>
		<path class="st0" d="M120.33,164.64c1.87-2.34,3.94-4.65,6.32-7.07c0.94-0.96,0.93-2.5-0.03-3.44c-0.96-0.94-2.5-0.93-3.44,0.03
			c-2.5,2.54-4.67,4.98-6.64,7.44c-0.84,1.05-0.67,2.58,0.38,3.42c0.45,0.36,0.99,0.53,1.52,0.53
			C119.14,165.56,119.85,165.24,120.33,164.64z"/>
		<path class="st0" d="M143.19,453.62c-1.1-0.78-2.61-0.52-3.39,0.58l-5.63,7.93c-0.78,1.1-0.52,2.61,0.58,3.39
			c0.43,0.3,0.92,0.45,1.41,0.45c0.76,0,1.51-0.36,1.99-1.02l5.63-7.93C144.54,455.91,144.29,454.39,143.19,453.62z"/>
	</g>
</g>
</svg>
